<svg width="24" height="24" viewBox="0 0 24 24" fill="none" xmlns="http://www.w3.org/2000/svg">
<path d="M8.9101 3.32998C8.7201 3.32998 8.5301 3.39998 8.3801 3.54998C8.0901 3.83998 8.0901 4.31998 8.3801 4.60998L14.9001 11.13C15.3801 11.61 15.3801 12.39 14.9001 12.87L8.3801 19.39C8.0901 19.68 8.0901 20.16 8.3801 20.45C8.6701 20.74 9.1501 20.74 9.4401 20.45L15.9601 13.93C16.4701 13.42 16.7601 12.73 16.7601 12C16.7601 11.27 16.4801 10.58 15.9601 10.07L9.4401 3.54998C9.2901 3.40998 9.1001 3.32998 8.9101 3.32998Z" fill="white"/>
</svg>
