<svg width="58" height="58" viewBox="0 0 58 58" fill="none" xmlns="http://www.w3.org/2000/svg">
<path d="M33.0003 43.3332H25.0003C17.7603 43.3332 14.667 40.2398 14.667 32.9998V24.9998C14.667 17.7598 17.7603 14.6665 25.0003 14.6665H33.0003C40.2403 14.6665 43.3337 17.7598 43.3337 24.9998V32.9998C43.3337 40.2398 40.2403 43.3332 33.0003 43.3332ZM25.0003 16.6665C18.8537 16.6665 16.667 18.8532 16.667 24.9998V32.9998C16.667 39.1465 18.8537 41.3332 25.0003 41.3332H33.0003C39.147 41.3332 41.3337 39.1465 41.3337 32.9998V24.9998C41.3337 18.8532 39.147 16.6665 33.0003 16.6665H25.0003Z" fill="#F9F9F9"/>
<path d="M24.9997 27.3333C22.973 27.3333 21.333 25.6933 21.333 23.6667C21.333 21.64 22.973 20 24.9997 20C27.0263 20 28.6663 21.64 28.6663 23.6667C28.6663 25.6933 27.0263 27.3333 24.9997 27.3333ZM24.9997 22C24.0797 22 23.333 22.7467 23.333 23.6667C23.333 24.5867 24.0797 25.3333 24.9997 25.3333C25.9197 25.3333 26.6663 24.5867 26.6663 23.6667C26.6663 22.7467 25.9197 22 24.9997 22Z" fill="#F9F9F9"/>
<path d="M16.5603 39.2666C16.2403 39.2666 15.9203 39.1066 15.7337 38.8266C15.427 38.3733 15.547 37.7466 16.0137 37.4399L22.587 33.0266C24.027 32.0532 26.0137 32.1732 27.3203 33.2799L27.7603 33.6666C28.427 34.2399 29.5603 34.2399 30.2137 33.6666L35.7603 28.9066C37.1737 27.6932 39.4003 27.6932 40.827 28.9066L43.0003 30.7732C43.4137 31.1332 43.467 31.7599 43.107 32.1866C42.747 32.5999 42.1203 32.6532 41.6937 32.2932L39.5203 30.4266C38.8537 29.8532 37.7203 29.8532 37.0537 30.4266L31.507 35.1866C30.0937 36.3999 27.867 36.3999 26.4403 35.1866L26.0003 34.7999C25.387 34.2799 24.3737 34.2266 23.6937 34.6932L17.1203 39.1066C16.947 39.2132 16.747 39.2666 16.5603 39.2666Z" fill="#F9F9F9"/>
<g opacity="0.3">
<rect x="8.5" y="8.5" width="41" height="41" rx="20.5" fill="white"/>
<rect x="8.5" y="8.5" width="41" height="41" rx="20.5" stroke="white"/>
</g>
<g opacity="0.2">
<rect x="0.5" y="0.5" width="57" height="57" rx="28.5" fill="white"/>
<rect x="0.5" y="0.5" width="57" height="57" rx="28.5" stroke="white"/>
</g>
</svg>
