<svg width="16" height="16" viewBox="0 0 16 16" fill="none" xmlns="http://www.w3.org/2000/svg">
<path d="M11.7332 15.04H4.26655C3.05322 15.04 1.94655 14.1066 1.74655 12.9066L0.859896 7.59999C0.719896 6.77332 1.1199 5.71333 1.7799 5.18666L6.39989 1.48663C7.29323 0.766626 8.69989 0.773299 9.59989 1.4933L14.2199 5.18666C14.8732 5.71333 15.2732 6.77332 15.1399 7.59999L14.2532 12.9066C14.0532 14.0866 12.9266 15.04 11.7332 15.04ZM7.99322 1.95993C7.63988 1.95993 7.28656 2.06666 7.02656 2.27333L2.40655 5.97328C2.02655 6.27995 1.76655 6.96 1.84655 7.44L2.73323 12.7466C2.85323 13.4466 3.55322 14.04 4.26655 14.04H11.7332C12.4466 14.04 13.1466 13.4466 13.2666 12.74L14.1532 7.43332C14.2332 6.95332 13.9666 6.26661 13.5932 5.96661L8.97322 2.27333C8.70655 2.06666 8.35322 1.95993 7.99322 1.95993Z" fill="#353535"/>
<path d="M9.41239 10.0866C9.28572 10.0866 9.16573 10.04 9.06573 9.94662C8.41906 9.32662 7.57907 9.32662 6.92573 9.94662C6.72573 10.14 6.41238 10.1333 6.21905 9.93327C6.02571 9.73327 6.03239 9.4199 6.23239 9.22657C7.26573 8.23323 8.71239 8.23323 9.75239 9.22657C9.95239 9.4199 9.95905 9.73327 9.76572 9.93327C9.67905 10.0333 9.54572 10.0866 9.41239 10.0866Z" fill="#353535"/>
<path d="M10.8269 8.67332C10.7002 8.67332 10.5736 8.62668 10.4802 8.53335C10.1669 8.22668 9.81358 7.97995 9.44025 7.79995C8.50692 7.35328 7.48691 7.35328 6.56025 7.79995C6.18691 7.97995 5.84025 8.22668 5.52025 8.53335C5.32691 8.72668 5.00691 8.72667 4.81358 8.52667C4.62025 8.32667 4.62692 8.0133 4.82025 7.81997C5.21359 7.4333 5.65358 7.12663 6.12692 6.89997C7.33358 6.31997 8.66691 6.31997 9.86691 6.89997C10.3402 7.12663 10.7803 7.4333 11.1736 7.81997C11.3736 8.0133 11.3736 8.32667 11.1802 8.52667C11.0869 8.62001 10.9602 8.67332 10.8269 8.67332Z" fill="#353535"/>
<path d="M8.00036 11.6667C7.82703 11.6667 7.66036 11.6 7.52703 11.4733C7.26703 11.2133 7.26703 10.7934 7.52703 10.5334C7.78703 10.2734 8.21369 10.2734 8.47369 10.5334C8.73369 10.7934 8.73369 11.2133 8.47369 11.4733C8.34035 11.6 8.17369 11.6667 8.00036 11.6667Z" fill="#353535"/>
</svg>
